PathFileType	4	(X/Y/Z)	OpenSim_Sub05_CSBaseline_Accel.trc
DataRate	CameraRate	NumFrames	NumMarkers	Units	OrigDataRate	OrigDataStartFrame	OrigNumFrames
100	100	24	8	m	100	1320	10557
Frame#	Time	torso_imu_offset_imu	pelvis_imu_offset_imu	tibia_r_imu_offset_imu	femur_r_imu_offset_imu	tibia_l_imu_offset_imu	femur_l_imu_offset_imu	toes_r_imu_offset_imu	toes_l_imu_offset_imu
				X1	Y1	Z1	X2	Y2	Z2	X3	Y3	Z3	X4	Y4	Z4	X5	Y5	Z5	X6	Y6	Z6	X7	Y7	Z7	X8		Y8	Z8	

1320	13.19000000	8.75676472	-0.56291461	5.83378056	9.32018417	0.12092215	2.08235358	9.72857605	1.52460920	-0.19627288	9.60407530	-2.15461767	1.02772837	8.64153156	-4.52188551	1.06748808	7.63627191	-0.56276507	1.91140918	5.69991165	-1.72736618	8.09268306	7.56765352	1.22174506	13.79933279
1321	13.20000000	8.82106534	-0.46739614	5.79697374	9.46334258	0.09554920	1.91386383	9.48460215	1.93218427	0.10689868	9.94172454	-2.32287580	0.82702674	9.60238952	-4.68377430	0.49480528	7.43908945	-0.62761955	1.81887539	5.32197256	-1.58032628	8.38785957	8.92595093	1.61461850	14.10917654
1322	13.21000000	8.77209885	-0.40644196	5.82162502	9.51231427	0.28439463	1.87422216	9.55934912	2.08170455	0.29650071	9.61491562	-2.42589856	0.88065172	10.46345402	-4.74022290	-0.15890484	7.24874963	-0.72738455	1.66821477	5.66928376	-1.33173476	8.18995736	11.62493857	2.60458805	14.82927285
1323	13.22000000	8.74187071	-0.38960362	5.83346498	9.51286230	0.50407478	1.80648000	9.77126657	2.01724091	0.16339695	9.29843672	-2.21921725	1.29889830	10.68141525	-4.19254262	0.12261406	7.07038895	-0.69042536	1.58458118	5.74244735	-1.35320988	8.18102070	14.05286080	3.96733665	14.75353899
1324	13.23000000	8.74070474	-0.39875518	5.85108093	9.49144958	0.75378584	1.80329893	9.97828128	1.86687506	0.09248336	9.50957998	-1.73242495	1.90956855	10.48183533	-3.60488455	1.13253919	7.27540596	-0.38194077	1.57261211	5.55559014	-1.38013512	8.29482332	14.83391718	4.84692762	13.10212338
1325	13.24000000	8.85393550	-0.42307788	5.86726479	9.46349914	0.83892852	1.92393739	10.06435511	1.75135902	0.25907539	9.82227450	-1.40668091	2.43750132	10.22582654	-2.77933228	2.15158326	7.60065576	0.62048623	2.15751556	5.40361612	-1.61764905	8.37647866	15.06304568	5.13054473	11.02671442
1326	13.25000000	9.08898538	-0.42089023	5.89802769	9.36398909	0.68066706	2.00194651	10.11894580	1.58183151	0.22626809	9.77127932	-1.49117293	2.76140951	10.89390119	-2.57417834	2.33504751	8.44446919	2.01093702	3.22087958	5.65554210	-1.78573747	8.22095960	15.68888325	4.81632035	9.44245396
1327	13.26000000	9.24516426	-0.49237573	6.11190088	9.19228015	0.50689363	2.04778311	10.46615704	1.26931905	0.28758655	9.75321819	-1.57343592	2.94056572	11.25466056	-3.63089043	1.36009322	9.23723001	3.16791447	4.32037980	5.85508723	-1.31404990	8.17931917	16.76825371	4.61843560	8.46997463
1328	13.27000000	9.11255375	-0.58926075	5.98427841	9.04621816	0.41724671	2.00087306	10.56248857	1.07417945	0.52760485	9.71594473	-1.48669615	2.67964849	11.10987313	-5.04951881	0.38288089	9.51038791	4.00761577	5.16182518	5.55829733	-1.10055356	8.52540152	17.58730588	3.86388904	7.42966819
1329	13.28000000	9.03312456	-0.62822137	5.94452410	9.02158694	0.38600956	1.96596533	10.55693760	1.06899218	0.64033220	9.77579348	-1.19718589	2.27368192	11.07799878	-5.91066581	-0.55610193	9.79966616	4.85593658	5.26483657	5.35142407	-1.07466084	8.75096170	18.32487345	2.23845132	5.95515861
1330	13.29000000	9.07075940	-0.62946490	5.82846279	8.98049383	0.40152870	1.82235410	10.67026128	1.28214168	0.44109480	10.20195339	-1.00942577	2.24174582	11.03254640	-6.07924599	-0.85713998	9.28731226	5.50178121	4.07288453	5.36082354	-1.23664775	8.67101959	19.48777230	0.74906894	4.23809961
1331	13.30000000	9.36295656	-0.55197782	5.75612709	9.04194701	0.53174205	1.63166617	11.25911490	1.24318284	0.31503421	10.60918931	-1.04409292	2.05388481	10.24371843	-5.24070997	-0.48903976	8.70371131	5.85187138	2.48752357	5.62231541	-1.39898229	8.64460770	20.28665783	-0.87524028	2.16972287
1332	13.31000000	9.70314702	-0.47291110	5.73252642	9.22203185	0.67827035	1.52484247	11.34886326	1.45192408	0.34611884	10.74858747	-1.26748176	1.84926786	10.33066713	-4.03074151	-0.62589767	9.11177757	5.42671990	0.98297830	5.55268815	-1.39811606	8.76309149	21.23461207	-2.49627992	0.29044786
1333	13.32000000	9.83347661	-0.43011392	5.76009638	9.29846541	0.74914299	1.44789748	11.34593221	1.37942555	0.50090085	10.81161367	-1.68913809	1.80650329	10.57012764	-3.64629779	-1.05717252	9.22945973	4.33955804	1.34811724	5.49047105	-1.46120628	8.78699585	22.06336617	-3.80021604	-1.16432878
1334	13.33000000	9.95230630	-0.44647610	5.78678925	9.25347272	0.77831320	1.32060732	11.51430509	0.91904188	0.42933748	10.59043088	-2.29415797	1.72944624	9.86840491	-3.96793528	-1.44313008	9.67964428	3.44873251	2.85564588	5.34041702	-1.53243239	8.96906065	21.43605145	-1.16175603	-2.53828582
1335	13.34000000	9.95357600	-0.42787973	5.78591273	9.22801751	0.56191777	1.27609453	11.77797093	0.45748117	0.67604339	10.36333076	-2.84751533	1.69010462	10.10693201	-3.66815634	-1.73381536	9.28918076	2.53989111	4.15527992	5.51410210	-1.61265365	8.81396679	21.51573561	-1.32732973	-5.65946852
1336	13.35000000	9.87780163	-0.34057492	5.90372514	9.27410943	0.11812375	1.28042388	12.05861697	0.07794969	0.77179010	10.37224084	-3.09512762	1.63460192	11.49285657	-2.54112977	-0.75160245	9.12767651	1.47381718	4.94695498	5.76456461	-1.10987075	8.86757685	22.07500742	-5.50883735	-8.55832578
1337	13.36000000	9.77077506	-0.25423040	5.90033830	9.45285524	-0.44258459	1.16084388	12.50102529	-0.47182557	1.48378729	10.44107385	-3.37088544	1.99237444	12.00670425	-2.57243174	1.65153850	9.15739803	0.65076995	4.48330003	5.44935421	-1.01663563	9.26032697	27.71200263	-2.66518700	-10.10626642
1338	13.37000000	9.77184239	-0.14403029	5.97251646	9.79230486	-0.84684324	1.04442839	12.90899726	-1.51274905	1.97710019	10.51427696	-3.27878628	2.78457106	12.17144497	-4.06124435	3.31012606	8.25254467	0.52165215	2.77695432	5.11313453	-1.55425998	9.51155563	12.51554235	-4.26033371	-5.89973636
1339	13.38000000	9.95318848	0.00452346	6.11211760	10.46400748	-0.90595364	1.18479592	13.38120860	-2.46311196	1.85677847	10.43320592	-3.17582733	3.23376093	11.33145460	-6.69747956	1.97163083	7.46184097	0.35410456	0.54825657	5.27392983	-0.70165623	9.56690975	15.08798432	-0.25129272	17.37168338
1340	13.39000000	10.32619099	0.28191492	6.20602135	11.20834368	-0.60731891	2.16787922	14.08719188	-2.51745611	1.97310740	10.52137600	-3.30362138	3.32196042	9.26588347	-5.71336256	1.43475603	9.19319587	0.71925882	-0.09616590	5.33037804	-0.42830385	9.96554222	11.03213025	0.87271662	25.41904369
1341	13.40000000	10.91021951	0.76542328	6.46986924	11.90738041	-0.60180327	3.01056888	14.96971017	-2.05992279	2.64610607	10.73055023	-3.30379872	3.53210150	11.24328347	0.71512278	6.01871053	14.43908236	2.48229929	1.23879810	5.50144364	-0.75434387	10.65865016	1.65289850	-3.35381369	14.74718270
1342	13.41000000	11.44354023	1.30393203	6.65127811	12.40364762	-1.06951399	3.34837274	15.57837908	-1.19773821	3.39161152	11.17603265	-3.55557866	3.29639310	14.31192678	3.26610362	7.67209453	16.66158884	2.82162365	2.68944222	5.20053432	-1.74175240	10.63044725	6.49519567	1.09600082	12.66538559
1343	13.42000000	11.27435896	1.70045459	6.48260956	12.59025616	-1.60588266	3.71301146	16.10961266	-0.00072702	3.62068860	11.32299381	-3.87709932	3.20159995	11.44813861	-1.79354417	4.20263695	13.12775930	1.43180882	1.77019944	5.13975521	-2.26178305	11.05787591	12.57178482	5.55776684	14.88280950
